<svg id="SvgjsSvg1027" width="288" height="288" xmlns="http://www.w3.org/2000/svg" version="1.1" xmlns:xlink="http://www.w3.org/1999/xlink" xmlns:svgjs="http://svgjs.com/svgjs"><defs id="SvgjsDefs1028"></defs><g id="SvgjsG1029"><svg xmlns="http://www.w3.org/2000/svg" viewBox="0 0 24 24" width="288" height="288"><path d="M6.75,9.857v4.286a.75.75,0,0,1-1.5,0V9.857a.75.75,0,0,1,1.5,0ZM9,7.679a.75.75,0,0,0-.75.75v7.142a.75.75,0,1,0,1.5,0V8.429A.75.75,0,0,0,9,7.679ZM12,6.25a.75.75,0,0,0-.75.75V17a.75.75,0,0,0,1.5,0V7A.75.75,0,0,0,12,6.25Zm3,1.429a.75.75,0,0,0-.75.75v7.142a.75.75,0,1,0,1.5,0V8.429A.75.75,0,0,0,15,7.679Zm3,1.428a.75.75,0,0,0-.75.75v4.286a.75.75,0,0,0,1.5,0V9.857A.75.75,0,0,0,18,9.107ZM22.75,9v6c0,5.433-2.317,7.75-7.75,7.75H9c-5.433,0-7.75-2.317-7.75-7.75V9C1.25,3.567,3.567,1.25,9,1.25h6C20.433,1.25,22.75,3.567,22.75,9Zm-1.5,0c0-4.614-1.636-6.25-6.25-6.25H9C4.386,2.75,2.75,4.386,2.75,9v6c0,4.614,1.636,6.25,6.25,6.25h6c4.614,0,6.25-1.636,6.25-6.25Z" data-name="1" fill="#ba53de" class="color000 svgShape"></path></svg></g></svg>